<?xml version="1.0" encoding="iso-8859-1"?>
<!-- Uploaded to: SVG Repo, www.svgrepo.com, Generator: SVG Repo Mixer Tools -->
<!DOCTYPE svg PUBLIC "-//W3C//DTD SVG 1.1//EN" "http://www.w3.org/Graphics/SVG/1.1/DTD/svg11.dtd">
<svg fill="#000000" version="1.1" id="Capa_1" xmlns="http://www.w3.org/2000/svg" xmlns:xlink="http://www.w3.org/1999/xlink" 
	 width="800px" height="800px" viewBox="0 0 368.64 368.639"
	 xml:space="preserve">
<g>
	<g>
		<path d="M244.64,320.806c-3.518,0-6.944,1.059-9.857,3.006l-43.24-27.627v-137.97h-18.288v135.813l-0.92-0.04l-0.21,2.737
			l-40.289,26.012c-2.479-1.286-5.113-1.932-7.811-1.932c-9.844,0-17.867,8.02-17.867,17.873c0,9.851,8.023,17.878,17.867,17.878
			c9.858,0,17.881-8.027,17.881-17.878c0-0.24-0.008-0.484-0.038-0.745l31.668-20.662v17.901c-5.765,3.13-9.547,9.093-9.547,15.581
			c0,9.874,8.015,17.885,17.879,17.885c9.85,0,17.862-8.011,17.862-17.885c0-6.136-3.19-11.802-8.22-15.021v-18.698l35.313,23.307
			c0.842,9.077,8.508,16.215,17.816,16.215c9.843,0,17.861-8.027,17.861-17.878C262.518,328.833,254.49,320.806,244.64,320.806z"/>
		<path d="M184.332,18.929c18.779,0,34.012,3.725,34.012,8.325s-15.232,8.33-34.012,8.33c-18.782,0-34.009-3.729-34.009-8.33
			S165.55,18.929,184.332,18.929z"/>
		<path d="M160.663,55.665v87.919c7.259,0.643,15.11,1.058,23.669,1.058c3.867,0,7.606-0.062,11.241-0.165V55.375
			c-1.992-1.575-3.342-3.895-3.342-6.638c0-0.024,0.031-0.066,0.031-0.104c-2.62,0.066-5.262,0.104-7.931,0.104
			c-6.884,0-13.559-0.214-19.999-0.583c0.016,0.202,0.112,0.375,0.112,0.583C164.445,51.664,162.893,54.136,160.663,55.665z"/>
		<path d="M129.022,43.921c-0.405,2.044-1.441,3.761-3.005,5.009v88.708c6.816,1.821,14.839,3.496,24.126,4.757V55.068
			c-1.759-1.567-2.897-3.783-2.897-6.332c0-0.709,0.241-1.334,0.407-1.986C140.962,45.995,134.692,45.051,129.022,43.921z"/>
		<path d="M184.332,0C167.93,0,86.128,1.545,86.128,32.003c0,6.72,4.129,11.968,10.53,16.172v56.869
			c0,11.494,8.017,25.483,18.833,29.4V48.931c-1.986-1.579-3.33-3.909-3.33-6.65c0-0.936,0.245-1.805,0.529-2.661
			c-10.059-3.491-16.038-7.759-16.038-12.365c0-11.868,39.251-21.47,87.672-21.47c48.418,0,87.667,9.61,87.667,21.47
			c0,5.033-7.098,9.64-18.92,13.301c0.125,0.571,0.354,1.12,0.354,1.725c0,2.741-1.351,5.071-3.343,6.65v88.985
			c0.573-0.134,1.21-0.261,1.764-0.385c11.316-2.655,20.146-15.458,20.146-27.07V48.183c6.38-4.204,10.52-9.451,10.52-16.168
			C282.526,1.545,200.727,0,184.332,0z"/>
		<path d="M206.101,55.375v88.592c13.008-0.815,24.209-2.284,33.471-3.931V48.931c-1.427-1.138-2.413-2.653-2.89-4.45
			c-8.171,1.485-17.404,2.645-27.431,3.374c0.031,0.307,0.184,0.575,0.184,0.888C209.427,51.479,208.085,53.8,206.101,55.375z"/>
	</g>
</g>
</svg>